<?xml version="1.0" encoding="UTF-8" standalone="no"?>
<!DOCTYPE svg PUBLIC "-//W3C//DTD SVG 20010904//EN"
              "http://www.w3.org/TR/2001/REC-SVG-20010904/DTD/svg10.dtd">

<svg xmlns="http://www.w3.org/2000/svg"
     width="16.6667in" height="8.33333in"
     viewBox="0 0 1500 750">
  <path id="Zaznaczenie"
        fill="white" stroke="black" stroke-width="1"
        d="M 700.00,107.00
           C 697.21,94.76 687.90,78.73 678.99,70.04
             671.73,62.96 664.54,61.51 665.74,57.28
             666.50,54.61 673.28,52.36 675.72,51.26
             689.99,44.82 694.93,53.89 706.00,60.52
             709.99,62.91 713.69,63.83 718.00,65.34
             727.78,68.77 729.77,71.48 738.00,75.74
             738.00,75.74 760.00,86.45 760.00,86.45
             768.87,91.74 784.32,103.24 792.00,110.17
             792.00,110.17 804.00,121.91 804.00,121.91
             813.56,130.80 821.39,133.73 828.86,145.00
             833.06,151.33 836.63,154.72 842.00,159.99
             847.30,165.18 850.71,166.15 849.00,173.87
             852.65,173.35 858.39,172.26 861.90,173.87
             866.92,175.85 872.12,188.99 874.86,194.00
             874.86,194.00 886.31,217.00 886.31,217.00
             886.31,217.00 898.96,239.00 898.96,239.00
             901.52,244.54 899.80,246.11 904.87,255.00
             911.89,267.31 919.24,270.77 920.00,287.00
             920.00,287.00 916.41,285.41 916.41,285.41
             916.41,285.41 908.00,269.00 908.00,269.00
             909.96,277.66 915.17,299.16 914.99,307.00
             914.79,315.42 911.21,324.14 908.44,332.00
             908.44,332.00 905.43,342.00 905.43,342.00
             905.43,342.00 901.17,349.00 901.17,349.00
             901.17,349.00 899.90,355.00 899.90,355.00
             898.90,357.28 889.13,368.84 886.96,370.82
             881.01,376.26 879.04,375.31 873.00,378.03
             867.42,380.55 864.55,383.03 858.00,384.96
             852.91,386.45 847.10,385.22 845.78,390.06
             845.11,392.53 847.79,400.22 848.58,403.00
             848.58,403.00 861.60,438.00 861.60,438.00
             861.60,438.00 876.95,476.00 876.95,476.00
             876.95,476.00 887.26,505.00 887.26,505.00
             893.41,517.75 901.69,531.26 909.67,542.99
             909.67,542.99 916.58,552.04 916.58,552.04
             920.12,557.48 917.31,557.78 923.00,565.00
             927.60,556.54 928.97,558.27 931.59,553.90
             934.26,549.44 933.77,544.90 939.76,537.01
             943.87,531.60 947.19,530.56 951.48,523.00
             957.96,511.58 964.20,487.26 966.80,474.00
             966.80,474.00 971.00,455.00 971.00,455.00
             971.00,455.00 959.00,459.66 959.00,459.66
             959.00,459.66 934.00,467.42 934.00,467.42
             928.55,469.02 923.82,471.33 918.00,470.90
             912.01,470.47 903.95,465.76 901.74,460.00
             900.87,457.73 901.00,454.44 901.00,452.00
             901.00,452.00 901.00,448.00 901.00,448.00
             901.05,444.34 900.91,440.71 904.25,438.41
             904.25,438.41 930.00,427.69 930.00,427.69
             937.01,424.47 949.99,416.59 957.00,416.10
             962.61,415.70 973.23,419.09 977.00,412.78
             978.54,410.13 977.23,405.10 977.00,402.00
             977.00,402.00 975.00,374.00 975.00,374.00
             974.94,337.49 973.46,304.60 964.12,269.00
             964.12,269.00 951.69,231.00 951.69,231.00
             951.69,231.00 944.42,218.00 944.42,218.00
             933.12,198.53 927.33,191.55 911.91,175.00
             911.91,175.00 879.32,144.96 879.32,144.96
             879.32,144.96 867.32,129.00 867.32,129.00
             867.32,129.00 859.61,116.00 859.61,116.00
             855.18,110.35 837.07,93.43 831.00,88.46
             825.30,83.80 819.28,81.91 818.00,74.00
             828.61,75.43 836.48,80.98 846.00,85.75
             846.00,85.75 872.00,101.95 872.00,101.95
             872.00,101.95 891.00,113.30 891.00,113.30
             901.77,121.03 911.37,129.51 923.00,136.13
             930.10,140.17 935.02,141.43 943.00,142.57
             946.05,143.01 950.42,142.81 953.00,143.72
             954.98,144.42 957.19,145.96 959.00,147.09
             960.51,148.05 962.35,149.06 963.57,150.39
             966.95,154.06 965.80,157.79 964.50,162.00
             962.28,169.21 957.09,177.58 959.62,185.01
             961.49,190.50 973.16,204.38 979.00,204.96
             985.13,205.58 986.97,199.26 996.00,204.00
             996.00,204.00 996.00,199.00 996.00,199.00
             996.00,199.00 1003.00,201.00 1003.00,201.00
             1005.60,194.98 1012.38,203.36 1014.71,206.00
             1014.71,206.00 1037.17,236.79 1037.17,236.79
             1043.57,242.84 1049.99,239.71 1050.35,245.11
             1050.55,248.12 1045.10,257.05 1043.42,260.00
             1038.50,268.62 1037.26,273.53 1034.87,283.00
             1034.87,283.00 1026.88,313.00 1026.88,313.00
             1020.35,340.53 1015.30,368.76 1014.00,397.00
             1021.87,389.97 1024.85,391.13 1033.00,385.91
             1033.00,385.91 1066.00,361.12 1066.00,361.12
             1073.40,355.31 1078.13,347.58 1088.00,347.00
             1088.00,347.00 1087.00,356.00 1087.00,356.00
             1087.00,356.00 1096.00,354.95 1096.00,354.95
             1096.00,354.95 1102.00,354.95 1102.00,354.95
             1104.55,354.49 1111.88,354.10 1109.83,358.95
             1108.21,362.77 1102.49,363.36 1099.00,364.10
             1092.78,365.41 1089.11,368.40 1089.00,375.00
             1089.00,375.00 1099.00,372.00 1099.00,372.00
             1098.54,386.45 1087.97,385.53 1081.72,395.01
             1078.98,399.17 1079.49,403.93 1077.08,409.00
             1074.49,414.46 1071.15,415.80 1068.47,422.00
             1067.20,424.93 1066.05,430.50 1064.28,432.59
             1061.36,436.01 1056.20,435.50 1048.00,442.32
             1042.17,447.17 1038.97,452.78 1031.00,454.00
             1031.00,454.00 1030.00,449.00 1030.00,449.00
             1021.27,458.27 1022.29,465.96 1020.85,478.00
             1019.27,491.14 1016.55,522.24 1013.00,533.00
             1013.00,533.00 1014.00,534.00 1014.00,534.00
             1028.93,529.76 1030.89,537.20 1042.00,543.65
             1048.93,547.68 1051.07,546.43 1053.63,547.56
             1056.14,548.68 1056.89,551.13 1060.04,551.48
             1061.82,551.68 1064.95,550.49 1067.00,550.21
             1074.05,549.23 1078.28,551.60 1084.96,546.44
             1084.96,546.44 1094.01,537.34 1094.01,537.34
             1097.42,534.51 1100.31,533.67 1104.00,531.54
             1107.53,529.50 1110.64,526.72 1115.00,527.43
             1127.02,529.41 1128.54,544.97 1124.00,554.00
             1121.74,558.50 1118.74,560.77 1115.00,563.92
             1106.46,571.09 1098.29,579.20 1089.00,585.40
             1082.06,590.04 1076.79,590.31 1066.01,600.17
             1056.31,609.05 1053.20,619.02 1041.00,629.58
             1041.00,629.58 1015.00,653.00 1015.00,653.00
             1009.28,658.74 1004.02,663.93 1002.00,672.00
             1002.00,672.00 990.00,673.00 990.00,673.00
             990.00,673.00 992.00,664.00 992.00,664.00
             988.36,664.61 983.65,665.63 984.33,659.98
             984.88,655.43 990.68,649.48 993.57,646.00
             999.54,638.82 1008.16,627.35 1012.11,619.00
             1018.14,606.25 1016.17,602.34 1026.00,602.00
             1026.00,602.00 1027.00,605.00 1027.00,605.00
             1027.61,603.37 1028.32,601.73 1028.61,600.00
             1030.70,587.65 1017.16,589.72 1010.00,588.56
             1003.46,587.50 1001.99,584.72 996.00,586.00
             1006.34,587.97 1006.22,592.29 1001.00,600.00
             1001.00,600.00 1005.00,600.00 1005.00,600.00
             1004.41,608.19 996.83,616.14 992.34,623.00
             992.34,623.00 984.46,636.00 984.46,636.00
             978.24,645.66 968.49,659.39 964.70,670.00
             962.27,676.81 961.24,681.81 960.99,689.00
             960.92,690.93 960.92,694.53 958.63,695.28
             954.62,696.60 954.18,688.25 954.00,686.00
             954.00,686.00 949.00,687.00 949.00,687.00
             949.00,687.00 949.00,681.00 949.00,681.00
             949.00,681.00 939.00,686.68 939.00,686.68
             935.45,688.51 922.60,693.34 922.24,685.89
             921.89,678.63 936.52,665.92 936.71,658.00
             936.82,653.11 929.87,645.42 927.05,641.00
             925.55,638.64 922.24,632.19 919.81,631.25
             917.01,630.17 914.93,633.02 912.83,634.31
             910.17,635.94 907.11,636.20 904.04,635.95
             898.10,635.46 897.58,630.89 905.79,627.00
             905.31,624.53 904.71,622.67 905.79,620.09
             906.48,617.45 909.11,615.89 907.98,613.05
             907.39,611.57 903.85,608.28 902.58,606.91
             899.94,604.08 896.77,600.19 893.00,598.93
             887.55,597.12 882.03,601.50 878.00,604.58
             870.65,610.19 861.45,618.47 852.00,619.00
             852.03,610.43 853.71,601.12 858.79,594.00
             858.79,594.00 870.79,581.00 870.79,581.00
             875.24,575.75 880.30,563.97 879.52,557.00
             878.60,548.71 874.61,541.23 870.69,534.00
             869.09,531.05 866.88,526.84 863.90,525.17
             861.29,523.72 853.17,523.05 850.00,523.00
             848.03,522.98 844.31,523.27 842.74,522.01
             841.41,520.94 841.34,519.50 841.00,518.00
             838.75,518.40 833.92,519.90 832.10,519.58
             828.34,518.94 823.60,512.56 823.00,509.00
             826.92,508.10 834.95,505.48 836.89,501.74
             838.13,499.35 836.67,492.80 836.27,490.00
             834.47,477.58 831.41,467.70 827.05,456.00
             823.24,445.77 814.62,425.11 809.42,416.00
             807.81,413.18 804.18,405.53 801.95,403.92
             799.10,401.88 796.91,403.91 790.00,401.45
             790.00,401.45 778.00,395.80 778.00,395.80
             778.00,395.80 753.00,394.00 753.00,394.00
             743.01,393.88 730.99,386.42 725.36,399.01
             721.24,408.26 726.44,417.46 729.80,426.00
             729.80,426.00 734.96,440.00 734.96,440.00
             734.96,440.00 736.78,448.00 736.78,448.00
             738.68,454.29 743.79,458.64 747.30,464.00
             747.30,464.00 755.22,477.00 755.22,477.00
             755.22,477.00 760.13,487.00 760.13,487.00
             764.66,494.09 769.40,494.40 770.00,502.00
             770.00,502.00 754.00,498.33 754.00,498.33
             754.00,498.33 746.72,496.55 746.72,496.55
             746.72,496.55 744.00,502.00 744.00,502.00
             744.00,502.00 739.00,504.00 739.00,504.00
             741.09,504.05 743.77,503.93 745.57,505.17
             748.34,507.09 748.12,510.97 744.85,512.40
             740.11,514.48 728.83,511.59 724.00,510.00
             704.66,503.63 692.73,493.84 676.00,483.42
             676.00,483.42 658.02,473.59 658.02,473.59
             657.07,472.14 657.13,470.63 657.00,469.00
             657.00,469.00 660.00,469.00 660.00,469.00
             660.00,444.69 663.53,446.15 669.12,425.00
             674.20,405.75 682.22,369.23 682.00,350.00
             682.00,350.00 680.96,340.00 680.96,340.00
             680.96,340.00 680.96,331.00 680.96,331.00
             680.96,331.00 679.09,315.00 679.09,315.00
             679.09,315.00 676.43,286.00 676.43,286.00
             673.93,277.42 666.97,280.83 664.46,270.00
             664.46,270.00 661.20,252.00 661.20,252.00
             657.23,231.43 648.78,194.09 639.73,176.00
             636.12,168.78 630.95,160.60 626.28,154.00
             626.28,154.00 619.45,144.91 619.45,144.91
             619.45,144.91 610.93,129.00 610.93,129.00
             607.94,123.42 609.17,115.18 599.91,107.39
             594.61,102.93 590.22,104.44 585.00,100.57
             578.22,95.54 576.72,89.55 567.00,83.88
             563.10,81.60 550.99,77.44 549.61,73.87
             548.10,69.96 550.55,65.84 555.02,66.45
             558.39,66.90 564.89,71.13 568.00,73.00
             565.73,70.40 553.31,61.06 558.58,57.21
             561.35,55.19 566.53,58.20 569.00,59.61
             569.00,59.61 582.91,67.79 582.91,67.79
             586.47,70.50 587.27,72.64 592.00,75.52
             599.16,79.89 603.61,78.39 613.00,82.78
             613.00,82.78 643.00,97.26 643.00,97.26
             643.00,97.26 660.00,105.53 660.00,105.53
             660.00,105.53 677.00,109.88 677.00,109.88
             677.00,109.88 692.00,115.00 692.00,115.00
             694.15,109.48 693.71,107.53 700.00,107.00 Z
           M 493.00,92.00
           C 511.31,92.40 516.61,100.82 531.00,104.52
             544.17,107.91 553.38,103.90 569.00,108.16
             576.50,110.20 585.57,115.12 581.00,124.00
             586.03,126.83 594.21,128.81 597.28,133.10
             599.18,135.77 599.72,139.82 600.42,143.00
             600.42,143.00 604.30,166.00 604.30,166.00
             605.44,173.70 609.18,181.18 612.78,188.00
             617.30,196.57 622.24,204.85 625.56,214.00
             625.56,214.00 633.80,250.00 633.80,250.00
             637.25,267.86 642.97,309.56 643.00,327.00
             643.00,327.00 643.00,346.00 643.00,346.00
             643.00,346.00 642.00,364.00 642.00,364.00
             642.00,364.00 641.09,374.00 641.09,374.00
             641.09,374.00 637.85,407.00 637.85,407.00
             637.85,407.00 636.04,421.00 636.04,421.00
             635.85,425.32 635.90,429.85 637.22,434.00
             639.55,441.29 642.32,440.67 641.96,450.00
             641.96,450.00 641.09,461.00 641.09,461.00
             641.67,470.29 647.46,476.45 648.00,488.00
             638.97,486.07 639.10,479.39 634.00,473.00
             634.00,473.00 635.00,478.00 635.00,478.00
             624.99,477.91 627.03,476.52 619.00,474.51
             619.00,474.51 604.00,471.25 604.00,471.25
             604.00,471.25 583.00,462.69 583.00,462.69
             583.00,462.69 560.06,456.83 560.06,456.83
             556.71,454.99 556.28,452.26 554.46,450.43
             550.01,445.95 542.33,449.90 540.63,445.57
             538.69,440.65 547.00,439.11 550.00,438.00
             539.37,432.00 555.70,424.81 561.00,423.11
             569.07,420.51 571.00,426.25 577.00,426.67
             579.47,426.85 581.86,425.80 584.00,424.67
             592.55,420.18 597.57,411.59 597.96,402.00
             598.22,395.56 596.92,379.54 590.90,376.10
             585.65,373.10 581.18,378.01 576.00,378.77
             570.10,379.65 567.55,376.35 564.00,375.90
             560.45,375.45 557.36,378.18 552.00,377.78
             552.00,377.78 513.00,368.80 513.00,368.80
             506.75,367.61 500.34,368.01 494.00,368.00
             489.73,367.99 487.19,368.06 483.00,366.78
             480.18,365.92 476.94,364.08 474.00,364.33
             470.23,364.65 467.90,367.49 465.00,369.52
             461.14,372.22 458.19,372.66 454.17,376.33
             454.17,376.33 445.73,386.00 445.73,386.00
             438.13,394.91 422.07,409.07 430.15,421.99
             432.94,426.46 436.23,428.23 441.00,429.99
             443.19,430.80 447.52,431.91 448.30,434.39
             448.77,435.92 447.97,437.61 447.40,438.99
             444.67,445.68 442.78,444.99 436.00,445.00
             436.00,445.00 401.00,445.00 401.00,445.00
             384.71,445.20 377.03,457.30 365.00,458.00
             365.00,458.00 365.00,461.00 365.00,461.00
             359.29,460.54 356.75,459.14 358.00,452.99
             354.13,454.48 340.74,464.39 342.34,452.99
             343.11,447.53 347.22,442.14 350.62,438.00
             358.73,428.10 366.79,422.12 376.00,413.83
             389.49,401.69 414.52,376.94 422.44,361.00
             424.85,356.16 423.18,354.51 425.27,350.00
             428.64,342.76 433.81,338.94 434.67,329.00
             435.25,322.38 431.45,314.61 428.28,309.00
             428.28,309.00 411.19,281.00 411.19,281.00
             407.62,275.24 400.71,266.02 405.74,259.15
             408.07,255.96 411.41,255.93 415.00,256.02
             424.08,256.22 432.54,264.26 439.00,270.07
             441.12,271.98 444.04,275.07 447.00,275.42
             450.64,275.86 453.59,272.27 456.00,270.04
             460.10,266.24 461.50,265.05 467.00,264.00
             464.51,253.40 456.02,243.37 448.00,236.28
             440.79,229.92 431.49,223.40 431.04,213.00
             430.55,201.69 438.40,198.31 448.00,202.65
             452.33,204.61 454.94,208.62 458.09,212.00
             458.09,212.00 475.00,230.00 475.00,230.00
             475.61,219.68 479.40,222.16 486.00,220.20
             489.88,219.05 492.64,216.81 497.00,216.34
             501.33,215.87 502.04,217.53 508.00,217.00
             501.48,202.41 490.26,192.88 478.00,183.21
             470.77,177.51 461.58,172.92 461.00,163.00
             478.22,163.01 475.91,169.32 490.00,170.83
             499.94,171.89 503.87,166.96 510.00,170.02
             517.04,173.54 524.36,189.10 536.00,187.38
             553.33,184.82 556.38,164.53 550.53,151.00
             548.73,146.84 544.92,142.35 541.83,139.01
             541.83,139.01 526.00,124.09 526.00,124.09
             526.00,124.09 509.04,114.78 509.04,114.78
             504.17,111.28 501.33,106.80 497.97,102.00
             495.06,97.86 493.82,97.14 493.00,92.00 Z
           M 838.00,227.00
           C 829.17,226.20 820.60,221.93 813.00,217.58
             810.48,216.14 806.42,214.09 804.74,211.79
             802.60,208.86 803.41,205.94 801.83,203.10
             800.27,200.30 796.63,198.43 794.18,195.90
             791.95,193.58 789.75,189.57 787.62,188.09
             778.72,181.92 776.68,195.29 768.00,193.19
             760.97,191.50 753.38,184.91 748.00,183.11
             741.76,181.03 738.54,184.33 734.04,181.98
             729.64,179.67 728.84,174.23 723.00,171.54
             720.68,170.53 718.41,170.35 716.09,171.54
             709.15,174.93 709.93,186.45 710.00,193.00
             710.13,204.11 715.95,213.97 716.00,225.00
             716.00,225.00 716.00,230.00 716.00,230.00
             716.00,230.00 723.16,271.00 723.16,271.00
             725.52,279.32 729.57,278.43 730.77,285.00
             730.77,285.00 731.28,292.00 731.28,292.00
             731.28,292.00 734.27,318.00 734.27,318.00
             734.97,322.71 735.63,328.87 739.39,332.20
             744.37,336.61 748.85,334.11 754.00,334.37
             754.00,334.37 772.00,337.90 772.00,337.90
             772.00,337.90 786.00,337.90 786.00,337.90
             786.00,337.90 784.00,343.00 784.00,343.00
             784.00,343.00 798.00,344.96 798.00,344.96
             798.00,344.96 814.00,344.00 814.00,344.00
             814.00,344.00 819.00,344.00 819.00,344.00
             830.75,343.98 834.22,339.59 843.00,332.25
             858.53,319.26 863.16,310.88 869.02,292.00
             871.21,284.96 873.27,280.66 872.96,273.00
             872.83,269.65 868.67,253.41 867.45,250.00
             865.34,244.10 854.60,229.36 849.91,225.23
             845.54,221.37 838.64,218.96 838.00,227.00 Z
           M 1100.00,303.00
           C 1100.32,293.74 1103.56,295.59 1105.43,289.00
             1105.43,289.00 1106.53,279.00 1106.53,279.00
             1106.53,279.00 1109.66,270.00 1109.66,270.00
             1110.28,266.08 1107.92,263.74 1110.31,259.00
             1110.31,259.00 1120.72,244.00 1120.72,244.00
             1121.72,242.24 1123.68,239.16 1123.28,237.10
             1122.94,235.34 1121.39,234.24 1119.97,233.36
             1113.20,229.21 1109.69,232.22 1104.00,231.78
             1101.37,231.57 1099.45,230.64 1097.00,230.06
             1089.28,228.21 1084.30,237.74 1075.04,232.83
             1068.87,229.55 1067.07,217.94 1063.39,212.01
             1061.87,209.57 1060.16,207.71 1057.91,205.92
             1049.60,199.30 1038.00,194.22 1040.33,181.00
             1040.81,178.27 1041.93,175.44 1044.22,173.74
             1046.28,172.21 1048.55,172.08 1051.00,172.02
             1064.72,171.66 1064.78,177.95 1075.00,183.64
             1079.52,186.16 1082.05,185.99 1087.00,186.00
             1092.55,186.01 1102.19,185.30 1107.00,187.57
             1111.56,189.72 1116.77,195.67 1122.00,197.91
             1125.94,199.60 1131.30,198.70 1136.99,201.68
             1142.17,204.40 1143.13,208.04 1147.17,211.20
             1151.25,214.39 1155.02,214.94 1160.00,215.00
             1160.00,215.00 1180.00,215.00 1180.00,215.00
             1180.00,215.00 1179.00,227.00 1179.00,227.00
             1179.00,227.00 1196.00,227.00 1196.00,227.00
             1209.96,227.02 1240.28,235.54 1254.00,240.34
             1254.00,240.34 1279.00,250.76 1279.00,250.76
             1279.00,250.76 1292.87,253.48 1292.87,253.48
             1296.97,255.11 1296.55,257.40 1302.00,260.09
             1302.00,260.09 1339.00,275.66 1339.00,275.66
             1351.30,279.95 1350.14,276.70 1357.00,277.22
             1357.00,277.22 1373.00,280.71 1373.00,280.71
             1384.00,282.14 1381.61,279.78 1397.00,283.88
             1401.35,285.05 1409.49,287.84 1412.91,290.56
             1419.44,295.74 1420.92,302.34 1431.00,303.00
             1426.44,300.73 1424.88,300.19 1424.00,295.00
             1437.36,295.78 1440.60,308.03 1445.78,318.00
             1450.97,327.99 1454.40,332.71 1462.09,341.00
             1465.55,344.74 1474.84,353.78 1472.36,359.69
             1471.72,361.21 1470.43,361.72 1468.94,362.12
             1466.00,362.92 1463.66,362.58 1461.00,361.16
             1459.05,360.12 1456.58,357.61 1454.22,358.34
             1450.63,359.44 1450.99,366.24 1446.87,367.12
             1445.35,367.44 1442.69,366.38 1441.00,366.11
             1438.80,365.77 1436.37,366.12 1434.42,364.82
             1431.34,362.79 1431.20,358.29 1430.98,355.00
             1430.98,355.00 1429.47,335.00 1429.47,335.00
             1428.37,330.22 1426.21,327.53 1422.97,324.00
             1421.30,322.18 1415.40,314.21 1413.18,314.62
             1410.94,315.03 1409.62,320.10 1409.02,322.00
             1407.99,325.32 1406.36,330.65 1406.09,334.00
             1405.79,337.82 1406.40,344.70 1405.43,347.98
             1404.05,352.66 1399.38,355.98 1396.00,351.00
             1396.00,351.00 1388.00,353.00 1388.00,353.00
             1388.27,344.57 1390.68,345.22 1390.61,340.00
             1390.50,332.58 1388.57,321.77 1383.66,316.04
             1377.07,308.34 1365.35,307.33 1356.00,309.00
             1357.91,317.06 1361.07,318.82 1361.68,323.00
             1362.14,326.10 1360.63,328.98 1360.21,332.00
             1359.71,335.55 1360.52,343.08 1359.26,345.77
             1357.93,348.64 1354.04,349.67 1351.41,347.97
             1349.26,346.59 1347.97,342.35 1346.99,340.00
             1346.99,340.00 1339.26,325.00 1339.26,325.00
             1338.47,323.39 1336.94,319.69 1335.51,318.74
             1332.54,316.81 1328.88,321.10 1327.02,323.00
             1320.20,329.97 1320.74,336.84 1320.00,346.00
             1320.00,346.00 1327.00,346.00 1327.00,346.00
             1327.00,346.00 1320.00,362.00 1320.00,362.00
             1320.00,362.00 1314.00,362.00 1314.00,362.00
             1314.00,362.00 1314.00,369.00 1314.00,369.00
             1306.71,368.77 1307.07,366.78 1307.00,360.00
             1301.45,364.99 1298.68,377.58 1288.00,372.67
             1286.03,371.77 1284.61,370.39 1283.00,369.00
             1284.55,372.68 1288.88,381.12 1281.00,380.75
             1275.67,380.50 1272.42,370.26 1270.29,366.00
             1269.42,364.25 1268.24,361.20 1265.87,361.20
             1262.77,361.20 1256.45,368.61 1254.44,371.00
             1245.62,381.47 1241.80,390.82 1236.30,403.00
             1234.00,408.11 1232.75,415.10 1227.00,417.00
             1227.00,417.00 1226.00,413.00 1226.00,413.00
             1226.00,413.00 1206.43,462.00 1206.43,462.00
             1204.94,466.88 1200.97,476.52 1204.47,480.85
             1207.88,485.09 1212.40,483.56 1217.00,484.21
             1217.00,484.21 1227.00,486.66 1227.00,486.66
             1227.00,486.66 1242.00,486.00 1242.00,486.00
             1240.81,489.60 1240.54,489.69 1237.00,491.00
             1237.00,491.00 1237.00,493.00 1237.00,493.00
             1237.00,493.00 1248.00,496.96 1248.00,496.96
             1255.82,499.29 1271.76,501.09 1280.00,501.00
             1284.95,500.94 1293.92,500.08 1297.98,497.30
             1306.91,491.20 1301.81,486.04 1306.01,479.00
             1307.99,475.68 1312.40,471.34 1316.00,469.85
             1318.46,468.84 1320.90,469.14 1322.72,467.98
             1326.58,465.52 1325.16,460.43 1327.74,457.22
             1330.81,453.85 1335.22,456.48 1339.00,457.22
             1339.00,457.22 1339.89,469.00 1339.89,469.00
             1339.89,469.00 1332.00,496.00 1332.00,496.00
             1332.00,496.00 1333.00,497.00 1333.00,497.00
             1333.00,497.00 1345.00,488.00 1345.00,488.00
             1340.34,481.16 1350.14,476.94 1356.99,470.00
             1363.96,462.92 1365.33,458.86 1368.99,450.00
             1370.29,446.84 1372.56,439.80 1375.39,438.03
             1376.66,437.24 1385.95,436.19 1388.00,436.00
             1388.00,436.00 1387.00,471.00 1387.00,471.00
             1399.43,461.59 1400.27,454.97 1406.75,442.00
             1410.06,435.39 1411.88,429.31 1420.00,428.00
             1420.00,428.00 1415.91,452.00 1415.91,452.00
             1415.91,452.00 1409.00,474.00 1409.00,474.00
             1424.23,462.47 1430.21,441.86 1437.86,425.00
             1440.01,420.27 1445.56,409.32 1450.02,407.02
             1451.78,406.11 1453.11,406.15 1455.16,406.00
             1455.16,406.00 1455.16,417.00 1455.16,417.00
             1455.03,423.67 1456.90,430.36 1455.16,437.00
             1455.16,437.00 1442.05,468.00 1442.05,468.00
             1439.44,475.38 1443.64,476.77 1440.40,482.00
             1436.78,487.83 1427.33,494.03 1422.00,498.46
             1415.89,503.56 1411.56,511.08 1407.96,513.40
             1403.51,516.27 1401.95,512.94 1397.00,515.37
             1397.00,515.37 1384.00,523.40 1384.00,523.40
             1384.00,523.40 1367.00,532.25 1367.00,532.25
             1367.00,532.25 1346.00,543.32 1346.00,543.32
             1337.10,548.87 1340.02,550.06 1328.00,552.53
             1325.34,553.02 1321.65,553.23 1319.01,552.53
             1316.39,551.93 1314.84,550.37 1312.72,550.60
             1310.20,550.88 1305.07,555.35 1298.00,554.66
             1298.00,554.66 1280.00,550.00 1280.00,550.00
             1275.98,549.34 1274.31,551.10 1271.00,550.80
             1263.99,550.17 1260.38,537.19 1255.00,546.00
             1255.00,546.00 1258.00,549.00 1258.00,549.00
             1258.00,549.00 1248.00,549.96 1248.00,549.96
             1248.00,549.96 1235.00,549.96 1235.00,549.96
             1235.00,549.96 1239.00,542.00 1239.00,542.00
             1234.26,543.97 1230.31,545.74 1228.00,540.00
             1228.00,540.00 1216.83,547.49 1216.83,547.49
             1216.83,547.49 1206.00,549.00 1206.00,549.00
             1206.00,549.00 1206.00,545.00 1206.00,545.00
             1202.72,547.65 1199.41,550.07 1195.02,550.43
             1189.44,550.88 1189.27,545.88 1191.17,542.00
             1191.94,540.44 1192.95,539.34 1194.00,538.00
             1183.19,544.76 1185.10,544.29 1187.00,552.01
             1183.85,551.80 1179.82,550.51 1177.09,552.01
             1173.05,554.26 1172.33,559.18 1169.59,560.98
             1164.42,564.35 1152.46,560.04 1148.18,556.32
             1138.79,548.14 1136.54,524.97 1134.87,513.00
             1134.87,513.00 1131.00,480.00 1131.00,480.00
             1130.98,471.54 1129.77,460.98 1126.91,453.00
             1122.97,442.00 1118.09,439.73 1113.80,432.00
             1113.80,432.00 1106.48,417.00 1106.48,417.00
             1102.28,409.61 1098.09,407.56 1098.02,398.00
             1098.01,396.70 1098.02,394.48 1098.60,393.31
             1100.84,388.77 1104.56,394.05 1115.00,392.41
             1130.02,390.05 1129.54,384.70 1138.00,381.85
             1141.89,380.54 1152.39,381.00 1157.00,381.00
             1157.00,381.00 1156.04,369.00 1156.04,369.00
             1156.40,359.77 1161.60,341.90 1166.20,334.00
             1166.20,334.00 1197.00,289.00 1197.00,289.00
             1190.04,286.07 1200.33,278.62 1203.00,276.00
             1203.00,276.00 1186.00,273.26 1186.00,273.26
             1186.00,273.26 1172.00,278.22 1172.00,278.22
             1172.00,278.22 1161.00,279.00 1161.00,279.00
             1161.00,279.00 1162.00,271.00 1162.00,271.00
             1162.00,271.00 1140.00,283.04 1140.00,283.04
             1133.86,285.30 1126.71,284.14 1122.01,287.01
             1114.92,291.34 1112.70,300.59 1100.00,303.00 Z
           M 38.00,176.00
           C 50.20,176.39 48.74,189.68 56.21,195.41
             58.64,197.27 60.46,196.64 64.00,199.31
             64.00,199.31 81.00,215.91 81.00,215.91
             90.32,224.60 117.89,245.82 129.00,250.96
             129.00,250.96 140.00,254.36 140.00,254.36
             140.00,254.36 150.00,259.74 150.00,259.74
             150.00,259.74 173.00,271.25 173.00,271.25
             173.00,271.25 200.00,284.37 200.00,284.37
             200.00,284.37 220.00,286.42 220.00,286.42
             220.00,286.42 239.00,289.62 239.00,289.62
             241.55,289.50 243.76,288.35 246.00,287.24
             262.46,279.10 264.12,270.25 275.00,272.23
             282.78,273.64 283.30,282.73 284.90,289.00
             287.05,297.44 292.29,306.19 301.00,309.08
             303.07,309.77 304.85,310.00 307.00,309.60
             307.00,309.60 324.96,302.28 324.96,302.28
             326.34,301.33 327.36,300.29 328.35,298.96
             332.37,293.56 331.46,287.04 337.05,284.74
             338.71,284.05 341.22,283.97 343.00,284.10
             357.27,285.12 353.76,298.11 368.00,302.26
             369.20,302.62 371.71,303.39 372.89,303.31
             376.53,303.06 377.30,298.85 378.14,296.00
             379.94,289.86 381.23,280.22 388.00,278.00
             392.48,284.46 395.71,287.38 399.14,295.00
             399.14,295.00 405.56,311.91 405.56,311.91
             412.26,321.10 424.71,323.71 423.96,337.00
             423.40,346.85 415.58,349.98 407.00,350.00
             407.00,350.00 368.00,350.00 368.00,350.00
             368.00,350.00 347.00,349.34 347.00,349.34
             342.00,350.05 334.56,353.47 330.00,355.75
             325.47,358.02 315.42,363.48 312.48,367.30
             310.30,370.14 311.47,371.98 310.01,374.41
             310.01,374.41 306.17,379.10 306.17,379.10
             304.41,382.32 304.02,389.29 304.00,393.00
             304.00,393.00 304.00,406.00 304.00,406.00
             304.05,409.93 304.94,418.58 306.57,422.00
             308.37,425.78 311.20,427.69 312.40,431.00
             313.60,434.30 312.06,442.14 317.48,453.00
             318.57,455.18 320.89,460.12 322.41,461.69
             324.89,464.24 331.49,465.12 330.26,470.00
             329.31,473.76 323.23,476.12 320.00,477.59
             313.57,480.50 309.23,483.22 305.00,489.00
             305.00,489.00 307.19,490.59 307.19,490.59
             307.19,490.59 303.99,501.91 303.99,501.91
             303.99,501.91 289.60,514.09 289.60,514.09
             289.60,514.09 288.00,525.00 288.00,525.00
             278.48,525.86 275.49,529.51 269.00,536.00
             266.51,538.49 263.67,541.23 261.53,544.00
             261.53,544.00 256.37,551.58 256.37,551.58
             253.15,555.43 242.48,564.25 241.50,568.42
             241.50,568.42 242.00,576.00 242.00,576.00
             239.05,576.00 235.73,575.74 233.00,576.98
             225.19,580.54 227.36,584.88 215.00,585.00
             215.00,585.00 218.03,569.00 218.03,569.00
             219.94,565.09 226.53,560.38 229.15,556.00
             230.81,553.22 230.94,549.95 232.21,547.00
             232.21,547.00 238.69,534.00 238.69,534.00
             238.69,534.00 249.88,489.00 249.88,489.00
             249.88,489.00 264.59,438.00 264.59,438.00
             264.81,435.66 264.25,433.33 264.09,431.00
             263.17,418.17 262.86,415.35 259.02,403.00
             257.97,399.62 256.28,392.85 254.73,390.01
             254.73,390.01 240.82,374.68 240.82,374.68
             240.82,374.68 236.00,371.79 236.00,371.79
             232.18,369.40 228.19,365.36 225.17,362.00
             225.17,362.00 207.99,341.00 207.99,341.00
             197.06,329.86 184.40,321.49 172.00,312.24
             172.00,312.24 163.00,304.79 163.00,304.79
             156.19,299.96 153.21,301.62 148.00,297.71
             148.00,297.71 127.00,279.16 127.00,279.16
             127.00,279.16 83.00,240.16 83.00,240.16
             71.08,229.52 64.89,224.56 50.00,218.58
             41.34,215.11 39.93,219.59 32.02,212.85
             30.89,211.89 28.72,209.91 28.04,208.62
             25.74,204.20 32.66,204.35 33.31,201.43
             33.89,198.81 30.05,196.89 29.00,190.00
             29.00,190.00 43.00,197.00 43.00,197.00
             43.00,197.00 38.00,176.00 38.00,176.00 Z
           M 1005.00,203.00
           C 1005.00,203.00 1004.00,203.00 1004.00,203.00
             1004.00,203.00 1005.00,204.00 1005.00,204.00
             1005.00,204.00 1005.00,203.00 1005.00,203.00 Z
           M 1006.00,204.00
           C 1006.00,204.00 1005.00,204.00 1005.00,204.00
             1005.00,204.00 1006.00,205.00 1006.00,205.00
             1006.00,205.00 1006.00,204.00 1006.00,204.00 Z
           M 1007.00,205.00
           C 1007.00,205.00 1006.00,205.00 1006.00,205.00
             1006.00,205.00 1007.00,206.00 1007.00,206.00
             1007.00,206.00 1007.00,205.00 1007.00,205.00 Z
           M 1009.00,208.00
           C 1009.00,208.00 1008.00,208.00 1008.00,208.00
             1008.00,208.00 1009.00,209.00 1009.00,209.00
             1009.00,209.00 1009.00,208.00 1009.00,208.00 Z
           M 1010.00,209.00
           C 1010.00,209.00 1009.00,209.00 1009.00,209.00
             1009.00,209.00 1010.00,210.00 1010.00,210.00
             1010.00,210.00 1010.00,209.00 1010.00,209.00 Z
           M 1013.00,213.00
           C 1013.00,213.00 1012.00,213.00 1012.00,213.00
             1012.00,213.00 1013.00,214.00 1013.00,214.00
             1013.00,214.00 1013.00,213.00 1013.00,213.00 Z
           M 1014.00,214.00
           C 1014.00,214.00 1013.00,214.00 1013.00,214.00
             1013.00,214.00 1014.00,215.00 1014.00,215.00
             1014.00,215.00 1014.00,214.00 1014.00,214.00 Z
           M 1017.00,218.00
           C 1017.00,218.00 1016.00,218.00 1016.00,218.00
             1016.00,218.00 1017.00,219.00 1017.00,219.00
             1017.00,219.00 1017.00,218.00 1017.00,218.00 Z
           M 1020.00,222.00
           C 1020.00,222.00 1019.00,222.00 1019.00,222.00
             1019.00,222.00 1020.00,223.00 1020.00,223.00
             1020.00,223.00 1020.00,222.00 1020.00,222.00 Z
           M 1021.00,223.00
           C 1021.00,223.00 1020.00,223.00 1020.00,223.00
             1020.00,223.00 1021.00,224.00 1021.00,224.00
             1021.00,224.00 1021.00,223.00 1021.00,223.00 Z
           M 1023.00,226.00
           C 1023.00,226.00 1022.00,226.00 1022.00,226.00
             1022.00,226.00 1023.00,227.00 1023.00,227.00
             1023.00,227.00 1023.00,226.00 1023.00,226.00 Z
           M 1024.00,227.00
           C 1024.00,227.00 1023.00,227.00 1023.00,227.00
             1023.00,227.00 1024.00,228.00 1024.00,228.00
             1024.00,228.00 1024.00,227.00 1024.00,227.00 Z
           M 496.00,328.00
           C 507.72,333.46 522.63,330.35 535.00,329.00
             535.00,329.00 542.00,329.00 542.00,329.00
             546.09,328.44 547.45,327.86 552.00,328.04
             563.77,328.50 564.35,334.29 571.98,334.59
             576.91,334.79 577.02,331.10 580.14,328.41
             584.01,325.08 588.73,325.40 593.35,318.98
             595.70,315.73 598.06,308.96 599.12,305.00
             604.76,283.84 598.28,273.86 593.37,254.00
             591.41,246.03 588.75,232.58 579.00,230.47
             572.96,229.17 567.21,235.52 564.25,240.00
             561.62,243.96 561.19,247.20 557.79,250.91
             555.42,253.49 552.64,255.11 550.00,257.32
             543.19,263.03 530.56,274.68 526.07,282.00
             522.41,287.95 521.55,293.33 516.67,298.96
             511.58,304.84 506.13,305.70 502.74,311.02
             499.69,315.79 503.18,316.10 496.00,328.00 Z
           M 1026.00,230.00
           C 1026.00,230.00 1025.00,230.00 1025.00,230.00
             1025.00,230.00 1026.00,231.00 1026.00,231.00
             1026.00,231.00 1026.00,230.00 1026.00,230.00 Z
           M 1027.00,231.00
           C 1027.00,231.00 1026.00,231.00 1026.00,231.00
             1026.00,231.00 1027.00,232.00 1027.00,232.00
             1027.00,232.00 1027.00,231.00 1027.00,231.00 Z
           M 1028.00,233.00
           C 1028.00,233.00 1027.00,233.00 1027.00,233.00
             1027.00,233.00 1028.00,234.00 1028.00,234.00
             1028.00,234.00 1028.00,233.00 1028.00,233.00 Z
           M 1029.00,234.00
           C 1029.00,234.00 1028.00,234.00 1028.00,234.00
             1028.00,234.00 1029.00,235.00 1029.00,235.00
             1029.00,235.00 1029.00,234.00 1029.00,234.00 Z
           M 1030.00,235.00
           C 1029.48,239.46 1032.23,242.95 1036.00,245.00
             1036.00,245.00 1030.00,235.00 1030.00,235.00 Z
           M 1204.00,275.00
           C 1204.00,275.00 1203.00,275.00 1203.00,275.00
             1203.00,275.00 1204.00,276.00 1204.00,276.00
             1204.00,276.00 1204.00,275.00 1204.00,275.00 Z
           M 1278.00,303.00
           C 1270.17,305.73 1263.13,310.60 1255.00,312.33
             1248.28,313.77 1242.89,311.74 1238.18,315.51
             1235.48,317.67 1232.66,322.97 1230.32,326.00
             1227.27,329.94 1222.60,333.88 1220.44,338.00
             1215.95,346.55 1221.40,342.82 1212.00,354.00
             1219.19,352.93 1220.86,355.39 1223.84,353.35
             1228.39,350.23 1224.13,346.39 1230.11,342.35
             1232.92,340.45 1251.95,331.11 1255.00,330.31
             1255.00,330.31 1265.00,329.00 1265.00,329.00
             1264.37,327.37 1263.52,325.84 1263.87,324.00
             1264.87,318.58 1275.14,313.42 1280.00,312.00
             1280.00,312.00 1278.00,303.00 1278.00,303.00 Z
           M 1432.00,304.00
           C 1432.00,304.00 1431.00,304.00 1431.00,304.00
             1431.00,304.00 1432.00,305.00 1432.00,305.00
             1432.00,305.00 1432.00,304.00 1432.00,304.00 Z
           M 776.00,342.00
           C 770.27,341.19 764.62,338.77 759.00,341.00
             764.36,342.74 770.56,344.16 776.00,342.00 Z
           M 1087.00,356.00
           C 1087.00,356.00 1086.00,356.00 1086.00,356.00
             1086.00,356.00 1087.00,357.00 1087.00,357.00
             1087.00,357.00 1087.00,356.00 1087.00,356.00 Z
           M 1283.00,367.00
           C 1283.00,367.00 1282.00,367.00 1282.00,367.00
             1282.00,367.00 1283.00,368.00 1283.00,368.00
             1283.00,368.00 1283.00,367.00 1283.00,367.00 Z
           M 1235.00,390.00
           C 1232.23,393.26 1230.81,397.80 1232.00,402.00
             1232.00,402.00 1235.00,390.00 1235.00,390.00 Z
           M 1014.00,397.00
           C 1008.90,397.43 1008.33,398.07 1007.00,403.00
             1007.00,403.00 1014.00,397.00 1014.00,397.00 Z
           M 1230.00,406.00
           C 1230.00,406.00 1229.00,406.00 1229.00,406.00
             1229.00,406.00 1230.00,407.00 1230.00,407.00
             1230.00,407.00 1230.00,406.00 1230.00,406.00 Z
           M 1229.00,408.00
           C 1229.00,408.00 1228.00,408.00 1228.00,408.00
             1228.00,408.00 1229.00,409.00 1229.00,409.00
             1229.00,409.00 1229.00,408.00 1229.00,408.00 Z
           M 634.00,473.00
           C 630.97,469.02 627.46,465.06 624.00,471.00
             624.00,471.00 634.00,473.00 634.00,473.00 Z
           M 1196.00,536.00
           C 1196.00,536.00 1195.00,536.00 1195.00,536.00
             1195.00,536.00 1196.00,537.00 1196.00,537.00
             1196.00,537.00 1196.00,536.00 1196.00,536.00 Z
           M 1195.00,537.00
           C 1195.00,537.00 1194.00,537.00 1194.00,537.00
             1194.00,537.00 1195.00,538.00 1195.00,538.00
             1195.00,538.00 1195.00,537.00 1195.00,537.00 Z
           M 995.00,585.00
           C 991.34,579.45 984.95,578.07 979.00,575.81
             979.00,575.81 960.00,567.96 960.00,567.96
             956.14,566.63 954.22,567.36 951.00,565.84
             951.00,565.84 945.00,561.99 945.00,561.99
             941.06,559.78 935.23,559.48 933.88,565.00
             932.60,570.26 942.66,575.28 947.00,574.55
             950.11,574.02 952.47,571.69 957.00,572.23
             961.28,572.74 965.71,576.35 970.00,578.07
             970.00,578.07 995.00,585.00 995.00,585.00 Z
           M 993.00,663.00
           C 993.00,663.00 992.00,663.00 992.00,663.00
             992.00,663.00 993.00,664.00 993.00,664.00
             993.00,664.00 993.00,663.00 993.00,663.00 Z" />
</svg>
