<svg xmlns="http://www.w3.org/2000/svg" viewBox="0 0 1500 750"><defs><style>.cls-1{fill:#fff;}</style></defs><title>logo_white_Ai</title><g id="logo_wektor" data-name="logo wektor"><rect width="1500" height="750"/><path class="cls-1" d="M42.67,177a121.53,121.53,0,0,1,12,20c2.18.9,4.22,1.1,6,0C77.4,216.39,99.78,235,129,252.67c0,0,8.94,1,9,1.66.09,1.07,60.18,31.22,61.33,31.34,1.32.13,27.1.57,40,5.66a67.64,67.64,0,0,0,19-10l9.92-8.58c14.5-2.37,13.38,8.38,16.75,20.75,4.22,11.88,11.71,18.5,24.25,17,3.66-2.58,9.56-4.91,17.5-7,3.63-3.67,5.58-8.87,6.75-14.75,4.4-6.11,9.92-5.07,15.75-2a23.06,23.06,0,0,1,6.5,7.75c3,5.23,6.52,8.72,11.25,8,7.44,4.22,9.94,2.84,10.75-1.5,2.83-10.86,5.66-19.53,8.5-22.5,8.87,8.95,14.62,20.34,17.5,34l18.5,16.75c3.76,9.74-.63,15.62-8.75,19.75h-59c-3.9-.9-7.71-1.44-11,0-12.83,3.81-24.08,10.52-34.5,18.75.44,2.56,1.75,4.85,1.25,7.25-3.79-.69-5.19,1.2-5.75,4a147.81,147.81,0,0,0,0,40.25c.95,5.76,3.74,9.56,8.25,11.5-1.37,18.88,5.75,26,5.75,26,2.16,6.1,3.45,9.93,8.5,7.25a4.2,4.2,0,0,1,.25,3.5c1.06-.8,2.37-.53,3.75,0-.7,5.84-10.26,8-16.75,11.5-9,5.07-14.31,12.38-6.75,10.75-2.07,3.46-3.59,7-2.75,10.75-3.57,3.7-10,7.72-16.5,11.75a24,24,0,0,0-1,11.75c-6.2.48-11.6,2.48-15.5,7.25-6.93,6.16-12.65,12.43-15.25,19a87.46,87.46,0,0,0-17.25,18c1.37,2.42,2.58,4.76,2.25,6.25-.56,1.38-5.52,1-10,.83-9.8,10-12.67,9.54-15.83,9.5a12.17,12.17,0,0,1,4-8.16,10.63,10.63,0,0,1-2.5-6.34c4.42-3.54,9-8.49,13.5-13.66a14.32,14.32,0,0,0,.66-6.67c2.32-2.47,6.12-11.18,9.5-18.17,2.46-8.39,4.76-19.65,7-31.83,3.1-12.29,11.25-36.66,17.34-59.5.49-6.71-.84-17.41-2.34-28.5l-7.5-24.83c-5.63-3.94-10-8.42-12.66-13.67-10.66-2-21-17.65-31.34-31.5-13.21-12.42-26.39-23.05-39.5-31.17-6.14-7.16-12.79-11.05-20-11.33l-73.33-65c-8-7.05-16.16-12.64-24.67-15.17-6.58-4.33-11.16-3.83-13.16-2.5-2.07.93-8.22-5.26-13.34-9.66,1.26-2.12,3.41-2.89,6-3,2.92-1.27,2.36-3.67.5-6.5-3.43-3.66-5.68-7.22-6.5-10.67,3.55,2.78,7.34,8.25,11.67,9.17,5.27,4.26,6,2.5,4.5-2.84-2.45-3.45-3.21-9.7-4.83-16.33C39.16,176.37,40.5,176.08,42.67,177Z"/><path class="cls-1" d="M646.63,482.25l-4.13-11A33.37,33.37,0,0,1,640.38,455c2.12-7.31,1.81-9.71-1.88-14.87-3-3.15-3.65-12.15-2.62-25A622.06,622.06,0,0,0,642.5,334a366,366,0,0,0-3.87-46.12A404.22,404.22,0,0,0,628.88,231c-1.75-12.23-6.59-24.2-13.5-36-5.38-8.66-9.5-17.36-11.5-26.12-.3-8.46-2.3-18.26-5-28.63-.7-6.15-3-10.62-15.88-13.12-4.27-3.58-2.74-5.47,0-7-2.27-5.43-7.09-9.41-15.25-11.5-8.28-1.82-16.22-3.2-21.75-1.5-10.68-.09-20.47-2.11-29-6.88a57.93,57.93,0,0,0-15.87-6.75c-9.13-1.66-10.05.16-3.88,5,4.14,7.1,8.71,13.1,14.13,16.88,9.79,4,19,8.33,23,14.87,7.11,6.36,13.23,12.52,16.62,18.13,4.06,11.25,5.5,22.68-2.62,34.75-8.76,6.32-17.55,7.46-26.38.5l-10.87-11.88c-3.16-3-6.51-3.68-10.13-.75-5.81,1.81-13.31.87-21.75-1.62l-8.75-5c-8.58-2.88-10.83-1-6.87,5.62l7.75,6.42c14.49,10.85,27.65,21.81,34.37,33.33,5,7.87,3.8,10.5-3.37,8a11.54,11.54,0,0,0-10.63,1.13c-1.78,1.67-4.66,2.62-9,2.62-3.56-.38-6.19,1.25-7.25,6.25.38,5.1-1.53,3.86-4.25.38L466,221.38c-5.37-3-8.87-9.25-17.25-17.88-12.5-3.9-19.84-1.37-16.25,14.75,2.9,5.28,9.89,11.81,18.63,18.88,8.58,9.4,17.2,18.81,16.62,27.87-3.79-.8-8.62,2.29-14.62,9.75q-4.75,5-11,0a147.71,147.71,0,0,0-21.5-17.37C411,254.87,404,256,404.5,267.5c9.63,17.25,17,25.94,27.5,45.75,3.05,6.37,4.75,13.61,2.13,23.63-1.52,4-5,9.65-9.63,16.25-.27,3.14-.26,5.59.38,6.5-10.35,17.48-26.3,35.48-46.38,53.87A211.36,211.36,0,0,0,351.38,439c-4.88,5.35-8.19,10.93-9,16.88a3.81,3.81,0,0,0,5.12,1.75l7.13-5a8.94,8.94,0,0,1,6-.5c-1.8,1.42-3.25,2.95-3.25,4.87,2.41,2.69,4.9,4.24,7.5,3.88v-4.75a3.9,3.9,0,0,0,4.5.87,93.89,93.89,0,0,1,24.87-12.62c23.5-.38,42.31,1.2,51.25-.88a10.71,10.71,0,0,1,3.25-8.75c-2.61-2.23-7.66-4-13.37-5.62-8.49-5.46-11.33-13.92-5-27.25l19.75-23a20.56,20.56,0,0,1,12.75-8.75l5.25-5.25c4.79-2.53,9.58-2.2,14.37,1.12,6.13,1.88,14.71,1.49,28.88,1.5l38.25,8.88c2.91,1.32,6.1.72,9.37-.5,2.5-3.57,6-1.8,9.5.37,4.82,3.89,8.68,2.5,12.25-.5,6.64-3.25,12.48-3.5,15.88,5.5l2.5,20.75c-.82,8.68-3.52,16.33-10.5,21.63-7,4.76-13.76,5.95-19.88.62-3.1-2.07-6.23-1.31-9.37.38L549,430.5c-4.12,3-3.46,5.17.88,6.75,2.78,2.22,1.6,3-2.63,2.75-5.54.76-7.35,3.23-7.12,6.63l15.75,1.5c.54,6.1,3.47,9.87,10.75,9.37a123.64,123.64,0,0,1,34.75,11.88,103.55,103.55,0,0,0,20.5,4.62c5.56,3.14,9.64,3.82,12.75,2.88-1.88-5.88-8.63-4-11.88-5.88,2.14-5.39,5.28-8.42,15.38,4.63a17.21,17.21,0,0,0,4.25,9.25C647.53,489.16,648,487,646.63,482.25ZM597.33,312.5c-1.71,7-5.77,12-13.16,14.17-3.35,1.33-6.42,2.77-6.34,5.5.63,2.36-1.1,3.37-4.66,3.33-5.41-.39-8.61-1.67-10-3.67-3.8-5.36-23.52-2.29-40.5-.66-11.44.77-18.34.24-23.34-.84-4.6-1.09-4.7-3-2.16-5.5a10.82,10.82,0,0,0,2.66-9.5c.91-6.1,5.44-9.49,11.17-12A27.44,27.44,0,0,0,521.33,290c2.64-6.58,5.92-12.08,10-16.2l20-18.5c6.42-3.86,9.71-8.35,10.5-13.33l6.5-8.67c9-7.35,16.87-4.8,23.34,9.84a261,261,0,0,0,10,37.16A64,64,0,0,1,597.33,312.5Z"/><path class="cls-1" d="M1115.83,528.33c-4.41-2.45-7.14,2.23-12.33,5.17-5.94,1.63-10.39,5.13-14,10.33a17.09,17.09,0,0,1-14.17,7.17,19.31,19.31,0,0,0-12.16,1.17c-3.56,1.51-6.23.92-8.17-1.34.12-2.72-1.13-3.3-2.83-3.16-2.53.16-4.89.14-6.5-.67-7-3-11.49-7.27-16-11.5-3.15-2.18-8-2.36-13.67-1.5-3.37,1.34-3.8-.5-2.83-3.83a262.29,262.29,0,0,0,4.83-35.34l4.67-37.5c1.06-3.5,2.4-6.36,4.5-7.5,3.41-2.68,4.42-2,4,.67-.69,4.75,2.4,3.21,7-.83,7.3-8.1,14.73-13.59,22.33-15.5,5.24-1.17,3.88-3.23,4.67-6,2.51-8.37,4.33-13.29,7.5-14.5,4.72-5.22,6-10.74,6.5-16.34a13.15,13.15,0,0,1,5.66-7.66c5.87-4.22,11.84-8.49,11.17-9.84,5.52-7.52,3.22-8.4-4.33-4.83-3.6,1.28-4.74,0-3.84-3.33a8.94,8.94,0,0,1,6-7.5c6.38-1,11.76-2,13.17-3.17,5.2-3.26,4-5.1-1.5-6-4.41,1-11.94.88-16.83,1.67-4.58,2.37-3.48-.81-1-5.34.86-6.65-4.23-3.67-10.67,1.5a77.1,77.1,0,0,1-13,11.34,105.18,105.18,0,0,1-16.33,12.16c-6.79,6-13.66,11-20.67,14.34-7.94,2.09-12.7,7.23-17.5,12.33-2.81,1.51-4.12,1.05-2.67-3,.76-2,1.57-3.9,3.17-3.83,3.64.19,3.75-.48,3.33-3,1-4.07,1.13-6.77.5-8.34.06-8,3.07-24.8,5.5-39.83l7.84-37.56c3.41-9.67,6.74-26.81,11.66-41.77l9.84-17.5c3.32-5.25.34-6.31-4.17-6.34-5.69.31-10.57-5.49-15.17-13.5-4.71-9.32-12.74-18.66-21.83-28-6.11-3.47-5.45-1.77-2.5,1.67l6,7.67,23.67,30.5c4.89,6.58-2,8.71-3.67,1.33-5.25-10.1-17.72-25.59-30.33-41.17-4-1.31-5.42-.59-3.5,2.67,3.08,3.25.64,4.13-3.5.33-3.2-1.15-6.18-.41-9,1.5-6.08,3.31-9.58,1.25-12.5-2C966.92,197.47,961.51,192,960,189.5c-3.16-6.38-2.48-12.22-.17-17.83a59,59,0,0,0,4.17-11.5c3.8-7.18-1.38-10.66-8.5-13.34-2.33-2.87-5.59-4.2-10.33-3.33-8.47-.58-15.66-2.44-21.5-5.67-11.8-6.43-23.32-14.94-34.67-24.66l-17.33-9.84L852,90c-10.61-5.1-20.77-10.06-26-13.5-9.13-2.91-11.45-2-1.67,5.67a97.89,97.89,0,0,1,15.84,12.66C848.87,103,860,113,861.5,116c4.88,8.88,7.42,15.31,13.17,20,3.71,5.94,6,11.18,11,12.67l20.83,18.66c12.63,13.92,25.58,26.9,32.83,39.34,6.42,11.83,13.85,22.3,15.5,29.33,9.18,25.77,15.52,51.44,18.5,77,.65,12.21,1.27,23.78,1.84,34.5-.43,19.11,1,40.54,3.5,63.33,1.68,4.16-1.33,5.48-5.79,5.92-4,1.58-7.31,1.77-10,.63-4.65-2.55-10.83.52-17,3.62-11.58,6.62-27,12.8-43.38,18.88-1,8.38-2.63,15.43.38,20.75,1.21,2.88,5.48,5.57,10.12,8.25,4.33,2.22,9.15,1.74,14.25-.38l18-5.37a127.78,127.78,0,0,0,19.63-7c8.1-5.33,7.71-.7,5.87,5.62l-3.5,13.63c-1,11-5.8,25.25-11.37,40.12-2.76,8.2-6.42,14.52-11.38,18.13a33.19,33.19,0,0,0-9.87,15.87c-1.39,4.22-2.75,8.61-4.88,8.63-3,.88-4,2.92-4.12,5.5-2.93,3.57-5.24,2.22-7.13-2.38.68-4.77-2.37-9.27-7.37-13.62L895,522.13c-5.33-9.13-10-18.17-12.87-27a198.72,198.72,0,0,0-11.75-32L850.25,412.5l-6.37-22.37c.1-4.44,3.65-5.22,8.25-4.88,6.21-.29,13.35-4.1,20.75-8.87,8.74.13,15.78-8.31,22.62-17.75,3.6-2.76,5.71-5.22,3.75-6.88a5,5,0,0,1,1.75-5.62c3.85-3,5.25-8.08,6-13.75A86.87,86.87,0,0,0,913.63,312c2-6.8.63-11.92-2.5-21.75a54.3,54.3,0,0,0-3.75-18.62c-.1-5.36,1-5.92,3.62.12,1.63,4,3.21,7.93,4.75,11.75,2.75,4.42,4.67,3.42,2.75-1.62-1.25-7.63-4.82-12.65-9.37-18.13a51.74,51.74,0,0,1-9-16.25c.13-4.76-2-8.55-4.63-12.12a308.71,308.71,0,0,1-19.12-36.25l-12.25-23c-3.33-3-7.67-3.5-13-1.63-2.55.95-3.61.42-2.88-1.87,1.67-3,.43-4.95-1.5-6.63-10.15-7.81-17.5-16.58-22.25-26.25-9.08-6.67-17.58-13.11-22.75-18.25C790.32,110,779.15,100,768.63,94c-4.49-4.2-10.68-7.72-17.75-10.87a190.3,190.3,0,0,1-20.75-10.38A36,36,0,0,0,716.88,66,46.86,46.86,0,0,1,702,59.63c-1.54-2.26-6.6-5.34-11.5-8.38-5.1-2.48-9.45-2.41-13.12,0,.79,1.49.81,2.43-1.5,1.75-1.85-.8-3.44-1.14-3.88.63-.37,1.32-1.39,1.94-3.5,1.37-6.07,2.52-3.27,4.8,2.25,7a49.51,49.51,0,0,1,18.63,19.38,66.35,66.35,0,0,1,10.37,20.5c1.32,3.53,1.7,6.1-1,5.5-3.14,0-4.51,1.58-4.5,4.5-.46,5.73-5.62,3.44-10.87,1-5.83-2.35-14.4-4.29-23.63-6.13L612.88,84.13a34.22,34.22,0,0,0-14.63-4.63A31.42,31.42,0,0,1,586,72.88c-2.51-4.15-6.52-6.71-11.25-8.5l-11.62-7c-7.65-1.4-7.19,1.6-3,6.62l8.62,7.25c2.72,4.06,1.07,4-2.62,1.88l-10.5-6c-4.11-1.38-5,.91-5.75,3.37-1.77,3.24.57,5.29,5.37,6.63L566,81.75A37.64,37.64,0,0,1,579.13,92.9L584,98.5a15.27,15.27,0,0,0,11.25,4.63c5.42,1.55,9,6.09,11.63,12,2.37,1.78,3.78,3.65,3,5.75-1.14,2.86-.13,5.27,2.37,7.37,4,8.21,8.37,18.36,11.13,19.5,11,15,19.9,30,23.9,44.75,7.34,22.12,12.87,47.11,17.35,73.75.67,5.58,2.12,10.27,6.5,11.5,3.33,1.39,5.8,3.67,6.37,7.88l2.13,26.5c2.29,22.22,3.86,43.05,1.87,57-4.6,26.3-9.27,51.3-14.5,66.25-3.8,9.68-6.61,19.16-6.5,28,.54,3.66.78,6.93-1.87,6.37-3.69,2.65-.18,4.47,4.75,6.13a60.37,60.37,0,0,1,16.5,8.62c14.52,9.95,28.23,18.43,39.75,23,8.09,2.89,15.82,5.27,21.62,5,5.23.41,6.68-1.82,5.38-6-2.26-1.5-4.6-2.36-7.13-1.5-2.66-1.44-3-2.74,1.38-3.75,2.74.73,3.87-.14,2.37-3.62,1.73-3.87,4.15-3.36,6.75-1.75l15.38,5.37c3.67.35,5-.59,3.62-3-4.18-2.48-7.57-6.85-10.75-11.75-2.69-8.17-9.37-18-16.25-28-5.08-3.2-6.66-9.43-7.25-16.5L726,419a25.23,25.23,0,0,1-1.25-22c3.67-9.07,14.28-6.59,25.25-3.5a66.3,66.3,0,0,1,17,.5c6.6-.28,12.86.09,17.5,3.5,4,2.68,8.21,4.71,12.75,4.5,5.91-.89,7,.75,9,6,5.64,9.44,10.4,19,11.88,24,10.79,23.27,18.5,45.08,19.56,63.75,1.75,6.1,1.45,9.75-2.31,9.25-2.09,2-5.1,3.3-8.5,4.25-5.14.89-5.6,2.16-.75,3.88,1.9.64,3.07,1.78,3,3.75,1.35,2.82,3.35,3.43,6.12,1.37,4-1.51,6.49-1.42,6.63,1.13.38,2.34,1.44,3.75,4,3.12a58.12,58.12,0,0,1,9.37.13,22.72,22.72,0,0,1,.5-2.38c.92-3.25,1.33-3.25,1.25,0l.13,3.38,4.25.12c4.08-.73,6.38,1.4,7.62,5.25a46.27,46.27,0,0,1,5.67,10.5c4.32,6.83,5.88,14.36,5.66,22.33-2.15,10.92-6.12,19.83-13.33,25.17-5.34,4.78-9.75,9.84-11.67,15.67l-2.66,11.5c-1.08,6.11,2.45,4.83,7.16,1.66a264.64,264.64,0,0,0,22-15.83c6.25-3.24,11.92-3.49,16.84.17,3.55,4.7,6.94,8.57,10,10.83,3.29,2.26,3,4.65-.67,7.17a5.64,5.64,0,0,0-2.5,5.83c1.83,2.43.82,4-1.67,5a7.92,7.92,0,0,0-3.83,3.17c-.31,3.7,3.41,4.33,9.5,3.16,2.41-1.32,4.36-2.76,5-4.5,4.74-2.64,7.73-2.64,8.33,1a157.93,157.93,0,0,0,13.34,19.84c2.92,4.47,2.29,9.33-1.17,14.5A177.72,177.72,0,0,0,923,684c-1.76,6.43,3.74,6.11,11.17,4L946,681.5c3.16-3.36,4.18-2.11,3.5,2.83.43,2.63,1.47,3.08,3.17,1.17,2.25-2.24,2.78-1.33,2.16,1.67l.84,6.16c1.92,3.12,3.58,3.23,4.66-1.16,0-5.83.06-11.55,1.17-14.17a65.65,65.65,0,0,1,5.17-15.83c6.36-10.63,13.23-22.39,16.5-26.17a250.69,250.69,0,0,1,19.33-29.67c3-4.19,2.82-6.12-.5-5.83-4.11,1.35-2.24-1.41.33-4.67,4.37-4.41,1.15-6.36-2.5-8.16a142.45,142.45,0,0,0-23.83-7A34.27,34.27,0,0,1,961.17,574c-4.66-2.36-8.16-2.67-10.17-.33-3.32,3.2-7.1,2.81-11.17.16l-6.5-4.5c-4-2,1.42-12.08,8.17-9.83a16.75,16.75,0,0,1,6,3.17c2.1,2.63,4.36,3.84,6.83,3.16a11.35,11.35,0,0,1,5.67,1.34A239.82,239.82,0,0,0,987.5,578l6.67,3.5c.74,2.19,1.88,3.58,4,3,2.08-.2,4-.22,4.83.67,1.82,2.6,7.49,3.16,14.83,2.83,4.4.14,7.88,1.28,10.34,3.5,3.41,5.63,1.81,10.59-1.5,15.33-3.42,4-2.91,2.14-1.17-1.5.19-4.76-3.64-3.25-6.5-.5a111.8,111.8,0,0,1-5.67,14.17c-4.28,9.35-12.28,20.11-21.5,31.33A29.46,29.46,0,0,0,984,661.5c.46,3.4,3.13,3.49,7.5,1,4.28-2,4.44-.91,1.83,2.17-1.38,1.74-2.33,3.39-2.33,4.83-1.42,4.74.56,3.7,3.33,1.33h4.17c2.2,1.17,3.51.22,3.5-3.83,6.66-12.26,19.67-21.68,30.67-32,9.32-7.54,17.17-15.25,22-23.33,5.07-7.1,10.11-13.24,15-16a43.22,43.22,0,0,1,16.16-9.34c6.63-5,14-10.37,16.84-13.5l13-11.33c7.13-5,10.31-11.35,9.83-19C1126.15,535.05,1122,531,1115.83,528.33ZM833.13,340.88c-2.37,2.64-5.71,4-10,4.12H807.5a46.72,46.72,0,0,1-13.5,1c-1.54-1.61-4.49-2.21-8.37-2.12a80.17,80.17,0,0,0-18.13-.25,13.67,13.67,0,0,1-7.87-2c-3.14-1.07-2.54-1.81,0-2.38,2.89-.52,6.5-.3,11.25,1.13,5.45,1.76,10.55,2.72,14.37.87,1.48-1.73.75-2.52-1.87-2.5a60.41,60.41,0,0,1-15.5-.87c-.79-1.26-4.54-1.69-8.25-2.13-4-1.23-9.6-.77-15.5,0-3.66-1-6.14-2.63-7.38-5-2.19-3-3.4-14-4.62-24.87-.28-2.76-1-10.58-1.75-17.75.09-6.41-1.72-9-4.38-9.88-3.17-.88-5.11-14.24-7.12-26.75-2.16-6.42-3.25-15.31-3.88-25.25,1.13-2.86.81-6.24-.87-10.12l-4.88-18.63c-.23-4,.33-12.14.88-20.25,2.64-6.39,6.89-9.6,14.5-6.12a18.24,18.24,0,0,1,6.75,8.75c1.64,1.94,3.35,3.73,6.37,2.75,5.47-1.8,10.17-1.23,14.25,1.25a48.52,48.52,0,0,0,15.25,8.37c2.89,2.1,5.49,2.71,7.25-.87,3-4.71,6.84-7.9,14.63-3.88,3.19,5.44,6.36,11.41,9.75,11.5,3.26,1.42,5.08,4.24,4.87,9a6.33,6.33,0,0,0,4.38,6l10.25,5.88a36,36,0,0,0,10.75,4.25c4.4,1.75,10.06,5,8.3-.38-.85-3.23,2-3.46,6.07-2.62a6.83,6.83,0,0,1,5.88,2.5,107.5,107.5,0,0,1,14.37,18.25c3.59,3.26,5.45,9.83,6.63,17.75,3.08,7.56,4.89,15.19,2.37,23l-5.37,17.12c-3.06,8.35-6.48,16.35-12.63,21.88C850.11,327.41,842.33,334,833.13,340.88Z"/><path class="cls-1" d="M1469.17,350.67,1456,336.17c-4.34-4.31-8.67-12.69-13-21.5a39.55,39.55,0,0,0-9-14.34c-2.39-2.74-4.65-4.07-6.83-4.5-2-.56-3-.1-2.34,2.34l6.5,4c4.74,5,2.63,5.18-5.33,1.16-3.57-.91-6.91-3.78-10.17-7.33-2.08-4.51-5.73-6.71-10-8-6.72-3-14.67-4.93-23.16-6.33-9,.16-15.7-.59-20.17-2.17-3.25-1.47-6.42-2.3-9.33-1-5.85,1.85-15.38-1.59-25.5-6.5L1304,261.83c-5.58-1.33-8.56-3.7-9.17-7A36.5,36.5,0,0,0,1280,252.5L1255.67,242a361.68,361.68,0,0,0-54.17-14.17c-5.69-.81-12.9-.71-20.83-.16-3.69.85-3.26-1.93-1-6.34V215l-2.5.5-18,.33c-9.47,0-14.33-3.19-17-8-3.38-5.55-9-7.6-15.67-8-4.79,1.1-10.87-4-17-9.33-3.92-5.09-14.45-4.24-24.67-3.67-7.73,1.37-13.63-3.66-19.5-8.83-3-3.35-7-4.72-11.33-5.67-10.34-1-12.45,4.23-13.17,10.5-.12,3.33.4,6.38,2.34,8.84a38.15,38.15,0,0,0,13.16,11.66c4.82,2.23,8.31,6.55,10.34,13.17l5,12.17c4.39,5.35,9.28,6.88,14.83,3.33,3.21-3.23,6.53-5.43,10.33-3.33,2.69,1.3,4.68,3,11.34,2.16,5.3-1,10-.47,14,2.17,4,1.41,4.59,4.19,1.33,8.5-3.48,6.56-7.2,12.44-11.5,16.67-2.27,2.82-3.36,5.62-1.33,8.33,1.91,1.67,1.09,4-.84,6.67a23.48,23.48,0,0,0-3.16,14.5c-.66,4.51-2,8.1-5.17,9.16-2.72,5.66-1.26,6.48,3.5,3.5A35.32,35.32,0,0,0,1117.17,289c4-4.48,8.82-5.46,14-5a21.54,21.54,0,0,0,10.5-2.83L1156.5,272c6.77-2.57,8.49-1.43,5.5,3.17-1.69,2.58-.36,4.06,7.5,3.16l13.83-5.66c5.88-2.1,8-.69,9.67,1.16,4,1.2,7.24,1.56,9.67,1,3-.36,3.8.31.83,2.67l-7.67,6.83c-2.36,3.17-2.31,4.71.34,4.5,3.24-.62,3.31,1,0,5l-29.84,41.84c-6.3,14.86-10.71,28.69-9.33,39.33,1.59,5.57,1.08,8.59-3.5,6.67h-7.17c-7.19-.53-11.34,2.14-14.83,5.5-5.77,5-13.56,6.15-21.83,6.33-3.35.5-5.53,0-6.5-1.5-5.08-.71-5.33,1.33-4.17,4.17a15.61,15.61,0,0,0,2.17,11.16c3.74,4.88,7.65,9.82,8,13.17l7.16,14.25c7.33,6.63,11.59,15.1,13.34,25.08,1.34,8.34,2.72,16.73,1.5,20.84l6.66,48.66c2.67,11.35,5.62,21.81,10.67,25.84,4.13,4.13,9.81,5.73,16,6.5,4,.42,6.62-.72,6.5-4.67a18.91,18.91,0,0,1,4.5-6c2.68-1.9,5.25-2.1,7.67,0,4.24.46,5.73,0,1.16-2.33-1.1-2.11-1.45-4.07,0-5.67L1199,532.83c5.82-3.39,5.23-2.17-.17,2.5-4.24,3.27-7.28,6.8-8.83,10.67.5,4.25,3.08,4.76,6.83,3.17a14.56,14.56,0,0,0,7.5-4.34c3.65-2.77,4.91-3,3.17-.16-2.12,3-1.35,4.27,3,3.33,3.87-.14,7.75-.29,7.83-2.83a7.22,7.22,0,0,1,5.84-4.67c3.23-2.12,4.36-1,5,1,.67,2.78,3.45,2.45,7.33.5,2.26-1.37,3.82-1.57,3.67,1.17.13,2-.62,3.22-2.5,3.5-2.9,1.08-4.56,2.09.5,2.66l14.16-.5c6.81-.23,8.62-1,1.5-2.83a3,3,0,0,1,2.17-4c4-3.3,7.61,1.26,11.17,6.33,2.42,2.79,4.81,3.51,7.16,1.17s5.71-1.41,9.17.5l11.17,3.17a14.81,14.81,0,0,0,13.83-2c2.63-2.41,5.61-4.15,8.83,0,5.38,2.75,8.76,1.8,11.67,0,5.62-.73,8.63-1.81,9.5-3.17l4-4.17,13.33-7.33c17-7.8,31.12-15.53,41.5-23.17,1.73-2,3.33-1.87,4.84,0,2.75,2.23,4.69,1,6.33-1.33l9.67-12.5c7.83-5.47,15.71-10.95,19.16-16,4-2.41,4.86-4.68,3.17-6.83l-1.17-5,3.5-8.5,9.84-20.84a24.6,24.6,0,0,0,2.16-16.66,26.61,26.61,0,0,1-.33-12c.72-10.12-2.5-9.5-8.17-2.17L1439,425.17l-11.83,26.66c-4.23,8.66-8.48,16.95-13,19.67-5.6,5.34-6.8,3.38-5.84-2.17l7.67-20.5,3.17-15.66c1.23-8.58-2.43-4.93-6.67.16l-10.33,20.84c-2.88,7.78-7,12.65-11.67,16-3.55,2.86-5,1.86-4.17-3.34l1-26.5c.49-3.86-.85-4.58-3.83-2.5-1.8,1.13-3.4,1.71-4.33.5-2-1.34-3.52-.5-4.84,1.5l-4.66,11.34c-2.92,7-5.84,14.09-8.84,17l-8,7.66-8.16,6.34c-1.76,4.52-1.27,5.7,2.83,1.5,4.1-2,3.26-.38-.17,3.16-4.8,4.87-9.55,9.59-12.83,10.34-3.94,1.3-3.54-1.57-1-6.5l3.83-16.34c2.25-3.21,2.89-5.73,2.17-7.66l-1-4.84c1-2.83-.25-4.95-4.67-4.5-.44-2.39-2.39-2.09-5.16-.33-1.7,2.53-2.82,5.15-2.34,8-.52,4.27-2.71,5.67-6.66,4a19.5,19.5,0,0,0-10.5,8.17c-4.49,3.56-5.07,7.95-4.17,12.66-1.87,12.2-15.68,11.3-28.33,11.67a128,128,0,0,1-24.17-2.67c-6.51-.9-11.55-2.72-15.33-5.33-2.5-1.11-2.15-2.22.66-3.33,6.29-2.57,4.44-3.61-3.5-3.5-3.86,1.15-8.74.74-13.83,0-3-2.82-7.69-2.6-12.67-1.84-4.52-.49-6.06-3.54-6.33-7.66a164,164,0,0,1,14.17-40.34l14-34L1232.5,391c3.55-3.68,4.31-2.36,3,2.67l-2.67,7.66-5.5,12.84c-1.24,6,.32,4.26,2.34,1.33L1236,401c2.65-5.82,5.16-11.34,7.5-16.5,5.88-10.05,12.52-18.5,20.17-24.83,3.14-1.44,5.64-1.5,6.16,2.66l7,14.5c.65,3.28,2.52,3.9,5,3.17,3.5.22,4.59-1.3,2.67-5l-2.67-5.83c-1.44-4.81-1.8-7.55,3.67.83a8.26,8.26,0,0,0,8.83,2.6c4.74-1.31,7.21-5.88,9-11.43,2.81-3.55,4.19-3.69,3.84.33l1.33,6.17c5.43,2.26,5.65-.16,4.67-3.67.08-2.72,1-3.86,3.33-2.5,2.58.21,4.15-.42,3-3.33,1.16-4,3-6.17,5.33-7,2.86-5,.93-5.66-3.5-4-2.89-.17-2-4.55-.83-9.34-.77-3.66,0-7.82,1.67-12.33l9-8.5c3.6-1.59,6.08-1.22,6.83,3.17l5.33,10.16c3,4,5.28,10.6,7.5,17.34,4.89,1.27,7.84,0,8.67-4-.49-6-1.19-12.43.33-15,1.48-2.31,2.14-4.63,1-7-2.12-2-3.68-5.12-5-8.67-2-4.95.87-5.91,5.84-5.17a39,39,0,0,1,13.5,1.34c5.54.82,9.39,4.81,12.5,10.16a61.23,61.23,0,0,1,3.5,19.17c1.71,4.13-.26,7-2.5,9.83-.39,3.44.1,5.49,4.16,2,2.46-1.13,4-.68,4,2.17,4.62,1.92,7-1,8.34-6,.19-5.27,0-10.45,0-15.5q4.15-12.76,5.33-16.33c.75-3.92,3.29-4.48,6.5,0,2.19,4,4.56,7.33,7.5,8.66a19.17,19.17,0,0,1,6,12l.67,16.5c-.53,5.47,1.26,8.89,2.83,12.5,2.33,1.1,4.64,1.91,6.83.17,2.06-1.09,3.21-.28,3.84,1.67,2.07,1.65,3.28.72,4.16-1.17l2.67-7c3-3.34,5.34-2.73,7.33.33,2.9,2.93,5.89,4.37,9,3.34C1474.67,361.24,1472.25,356.12,1469.17,350.67Zm-115.5,128.08c.58-1.67,5.5-5.83,5.5-5.83,1.71-1.09,2-.65.91,1.25l-5.41,5.5S1353.08,480.42,1353.67,478.75Zm-76.5-165.58-8.5,5.33-4.5,4.33c-1,1.65-1.67,3.2.66,4,1.44,2.5.73,3.76-2.33,3.67a12.15,12.15,0,0,0-10,1.5L1230,343.17c-2.83.87-3.42,2.53-3.17,4.5,1.45,2.88,1.09,4.94-1.83,5.83-2.44,3-4.49,3.31-6.17,1-1.13-1.18-2.92-1-5.16,0-4.2,3.24-3.35.91-1.67-2.33,3-1,4.63-3.79,5.67-7.34a18.29,18.29,0,0,1,5.66-12.5,47.11,47.11,0,0,0,11.5-14.33c2.12-3.61,5-5.84,9.34-5.33a42.37,42.37,0,0,0,19.33-3.84l11.33-5.66c3.91-.86,5.73-.44,4,1.83a4.83,4.83,0,0,1,1.5,4.67C1281.46,311.28,1281.46,312.66,1277.17,313.17Z"/></g></svg>